<svg xmlns="http://www.w3.org/2000/svg" width="115.189" height="115.191" viewBox="0 0 115.189 115.191">
  <g id="map_1_" data-name="map (1)" transform="translate(-0.004)">
    <g id="Group_6945" data-name="Group 6945" transform="translate(0.004 0)">
      <path id="Path_13176" data-name="Path 13176" d="M111.081,0a4.114,4.114,0,0,0-1.841.434L78.065,16.026,42.813.356C42.756.331,42.69.327,42.628.3a4.113,4.113,0,0,0-.485-.148,4.27,4.27,0,0,0-.5-.1,6.121,6.121,0,0,0-1,0,4.27,4.27,0,0,0-.5.1A4.113,4.113,0,0,0,39.658.3c-.062.025-.128.029-.185.054L2.448,16.812A4.113,4.113,0,0,0,0,20.571v90.506a4.116,4.116,0,0,0,5.784,3.76L41.143,99.122,76.5,114.838c.062.025.128,0,.189.037a3.633,3.633,0,0,0,3.114-.07c.066-.029.14,0,.206-.045L112.918,98.3a4.114,4.114,0,0,0,2.275-3.682V4.116A4.113,4.113,0,0,0,111.081,0ZM37.029,91.948l-28.8,12.8v-81.5l28.8-12.8Zm37.025,12.8-28.8-12.8v-81.5l28.8,12.8Zm32.911-12.667L82.282,104.421V23.114l24.683-12.342Z" transform="translate(-0.004 0)" fill="#4d0088"/>
    </g>
  </g>
</svg>
